# MagicaVoxel @ Ephtracy

# group
o 

# material
mtllib Tile.mtl
usemtl palette

# normals
vn -1 0 0
vn 1 0 0
vn 0 0 1
vn 0 0 -1
vn 0 -1 0
vn 0 1 0

# texcoords
vt 0.369141 0.5
vt 0.458984 0.5
vt 0.462891 0.5
vt 0.466797 0.5

# verts
v -0.5 0 0.5
v -0.5 0 -0.5
v -0.5 0.6 0.4
v -0.5 0.6 0.3
v -0.5 0.6 0.1
v -0.5 0.6 0
v -0.5 0.7 0.3
v -0.5 0.7 0.2
v -0.5 0.7 -0.1
v -0.5 0.7 -0.2
v -0.5 0.7 -0.4
v -0.5 0.7 -0.5
v -0.5 0.8 0.5
v -0.5 0.8 0.4
v -0.5 0.8 0.2
v -0.5 0.8 0.1
v -0.5 0.8 0
v -0.5 0.8 -0.1
v -0.5 0.8 -0.2
v -0.5 0.8 -0.4
v -0.5 0.9 0.2
v -0.5 0.9 0.1
v -0.5 1 0.5
v -0.5 1 0.2
v -0.5 1 0.1
v -0.5 1 -0.5
v 0.5 0 0.5
v 0.5 0 -0.5
v 0.5 0.5 0.2
v 0.5 0.5 0.1
v 0.5 0.6 -0.2
v 0.5 0.6 -0.3
v 0.5 0.7 0.5
v 0.5 0.7 0.4
v 0.5 0.7 0.3
v 0.5 0.7 0.2
v 0.5 0.7 0.1
v 0.5 0.7 -0.1
v 0.5 0.7 -0.3
v 0.5 0.7 -0.4
v 0.5 0.8 0.4
v 0.5 0.8 0.3
v 0.5 0.8 -0.1
v 0.5 0.8 -0.2
v 0.5 0.8 -0.4
v 0.5 0.8 -0.5
v 0.5 0.9 0.2
v 0.5 0.9 0.1
v 0.5 1 0.5
v 0.5 1 0.2
v 0.5 1 0.1
v 0.5 1 -0.5
v -0.5 0 0.5
v -0.5 0.8 0.5
v -0.5 1 0.5
v -0.3 0.6 0.5
v -0.3 0.8 0.5
v -0.2 0.5 0.5
v -0.2 0.6 0.5
v -0.1 0.5 0.5
v -0.1 0.8 0.5
v 0.1 0.7 0.5
v 0.1 0.8 0.5
v 0.2 0.6 0.5
v 0.2 0.7 0.5
v 0.3 0.6 0.5
v 0.3 0.7 0.5
v 0.5 0 0.5
v 0.5 0.7 0.5
v 0.5 1 0.5
v -0.5 0 -0.5
v -0.5 0.7 -0.5
v -0.5 1 -0.5
v -0.2 0.6 -0.5
v -0.2 0.7 -0.5
v -0.1 0.5 -0.5
v -0.1 0.6 -0.5
v 0 0.5 -0.5
v 0 0.7 -0.5
v 0.2 0.6 -0.5
v 0.2 0.7 -0.5
v 0.3 0.6 -0.5
v 0.3 0.7 -0.5
v 0.4 0.7 -0.5
v 0.4 0.8 -0.5
v 0.5 0 -0.5
v 0.5 0.8 -0.5
v 0.5 1 -0.5
v -0.5 0 0.5
v 0.5 0 0.5
v -0.5 0 -0.5
v 0.5 0 -0.5
v -0.5 1 0.5
v 0.5 1 0.5
v -0.5 1 0.2
v -0.4 1 0.2
v -0.2 1 0.2
v -0.1 1 0.2
v 0 1 0.2
v 0.1 1 0.2
v 0.2 1 0.2
v 0.4 1 0.2
v 0.5 1 0.2
v -0.5 1 0.1
v -0.4 1 0.1
v -0.3 1 0.1
v -0.1 1 0.1
v 0 1 0.1
v 0.1 1 0.1
v 0.3 1 0.1
v 0.4 1 0.1
v 0.5 1 0.1
v -0.4 1 0
v -0.3 1 0
v -0.2 1 0
v -0.1 1 0
v 0.1 1 0
v 0.2 1 0
v 0.3 1 0
v 0.4 1 0
v -0.3 1 -0.1
v -0.2 1 -0.1
v -0.1 1 -0.1
v 0.2 1 -0.1
v 0.3 1 -0.1
v -0.2 1 -0.2
v -0.1 1 -0.2
v -0.1 1 -0.3
v 0.1 1 -0.3
v -0.5 1 -0.5
v 0.5 1 -0.5

# faces
f 3/1/1 2/1/1 1/1/1
f 4/1/1 2/1/1 3/1/1
f 5/1/1 2/1/1 4/1/1
f 6/1/1 2/1/1 5/1/1
f 7/4/1 4/4/1 3/4/1
f 7/1/1 5/1/1 4/1/1
f 8/1/1 5/1/1 7/1/1
f 9/1/1 2/1/1 6/1/1
f 10/1/1 2/1/1 9/1/1
f 11/1/1 2/1/1 10/1/1
f 12/1/1 2/1/1 11/1/1
f 13/1/1 3/1/1 1/1/1
f 14/4/1 7/4/1 3/4/1
f 14/1/1 3/1/1 13/1/1
f 14/4/1 8/4/1 7/4/1
f 15/1/1 5/1/1 8/1/1
f 15/4/1 8/4/1 14/4/1
f 16/4/1 6/4/1 5/4/1
f 16/1/1 5/1/1 15/1/1
f 17/1/1 9/1/1 6/1/1
f 17/4/1 6/4/1 16/4/1
f 18/4/1 10/4/1 9/4/1
f 18/1/1 9/1/1 17/1/1
f 19/1/1 11/1/1 10/1/1
f 19/4/1 10/4/1 18/4/1
f 20/4/1 12/4/1 11/4/1
f 20/1/1 11/1/1 19/1/1
f 21/4/1 14/4/1 13/4/1
f 21/4/1 15/4/1 14/4/1
f 21/4/1 20/4/1 19/4/1
f 21/4/1 18/4/1 17/4/1
f 21/4/1 17/4/1 16/4/1
f 21/4/1 16/4/1 15/4/1
f 21/4/1 19/4/1 18/4/1
f 22/4/1 20/4/1 21/4/1
f 23/4/1 21/4/1 13/4/1
f 24/2/1 22/2/1 21/2/1
f 24/4/1 21/4/1 23/4/1
f 25/4/1 20/4/1 22/4/1
f 25/2/1 22/2/1 24/2/1
f 26/4/1 12/4/1 20/4/1
f 26/4/1 20/4/1 25/4/1
f 27/1/2 28/1/2 29/1/2
f 29/1/2 28/1/2 30/1/2
f 30/1/2 28/1/2 31/1/2
f 31/1/2 28/1/2 32/1/2
f 27/1/2 29/1/2 33/1/2
f 33/1/2 29/1/2 34/1/2
f 34/1/2 29/1/2 35/1/2
f 29/4/2 30/4/2 36/4/2
f 35/1/2 29/1/2 36/1/2
f 30/1/2 31/1/2 37/1/2
f 36/4/2 30/4/2 37/4/2
f 37/1/2 31/1/2 38/1/2
f 32/1/2 28/1/2 39/1/2
f 31/4/2 32/4/2 39/4/2
f 39/1/2 28/1/2 40/1/2
f 34/1/2 35/1/2 41/1/2
f 33/4/2 34/4/2 41/4/2
f 35/4/2 36/4/2 42/4/2
f 41/1/2 35/1/2 42/1/2
f 37/4/2 38/4/2 42/4/2
f 36/4/2 37/4/2 42/4/2
f 38/1/2 31/1/2 43/1/2
f 42/4/2 38/4/2 43/4/2
f 31/4/2 39/4/2 44/4/2
f 43/1/2 31/1/2 44/1/2
f 39/4/2 40/4/2 44/4/2
f 40/1/2 28/1/2 45/1/2
f 44/4/2 40/4/2 45/4/2
f 45/1/2 28/1/2 46/1/2
f 41/4/2 42/4/2 47/4/2
f 43/4/2 44/4/2 47/4/2
f 45/4/2 46/4/2 47/4/2
f 44/4/2 45/4/2 47/4/2
f 42/4/2 43/4/2 47/4/2
f 47/4/2 46/4/2 48/4/2
f 33/4/2 41/4/2 49/4/2
f 41/4/2 47/4/2 49/4/2
f 47/2/2 48/2/2 50/2/2
f 49/4/2 47/4/2 50/4/2
f 48/4/2 46/4/2 51/4/2
f 50/2/2 48/2/2 51/2/2
f 51/4/2 46/4/2 52/4/2
f 56/1/3 54/1/3 53/1/3
f 57/4/3 55/4/3 54/4/3
f 57/1/3 54/1/3 56/1/3
f 58/1/3 56/1/3 53/1/3
f 59/4/3 57/4/3 56/4/3
f 59/1/3 56/1/3 58/1/3
f 60/1/3 58/1/3 53/1/3
f 60/4/3 59/4/3 58/4/3
f 61/4/3 55/4/3 57/4/3
f 61/4/3 59/4/3 60/4/3
f 61/4/3 57/4/3 59/4/3
f 62/1/3 61/1/3 60/1/3
f 63/4/3 55/4/3 61/4/3
f 63/1/3 61/1/3 62/1/3
f 64/1/3 62/1/3 60/1/3
f 65/4/3 63/4/3 62/4/3
f 65/1/3 62/1/3 64/1/3
f 66/1/3 64/1/3 60/1/3
f 66/4/3 65/4/3 64/4/3
f 67/4/3 63/4/3 65/4/3
f 67/4/3 65/4/3 66/4/3
f 68/1/3 60/1/3 53/1/3
f 68/1/3 66/1/3 60/1/3
f 68/1/3 67/1/3 66/1/3
f 69/4/3 63/4/3 67/4/3
f 69/1/3 67/1/3 68/1/3
f 70/4/3 55/4/3 63/4/3
f 70/4/3 63/4/3 69/4/3
f 71/1/4 72/1/4 74/1/4
f 72/4/4 73/4/4 75/4/4
f 74/1/4 72/1/4 75/1/4
f 71/1/4 74/1/4 76/1/4
f 74/4/4 75/4/4 77/4/4
f 76/1/4 74/1/4 77/1/4
f 71/1/4 76/1/4 78/1/4
f 76/4/4 77/4/4 78/4/4
f 75/4/4 73/4/4 79/4/4
f 78/4/4 77/4/4 79/4/4
f 77/4/4 75/4/4 79/4/4
f 78/1/4 79/1/4 80/1/4
f 79/4/4 73/4/4 81/4/4
f 80/1/4 79/1/4 81/1/4
f 78/1/4 80/1/4 82/1/4
f 80/4/4 81/4/4 82/4/4
f 81/4/4 73/4/4 83/4/4
f 82/4/4 81/4/4 83/4/4
f 82/1/4 83/1/4 84/1/4
f 83/4/4 73/4/4 84/4/4
f 84/4/4 73/4/4 85/4/4
f 71/1/4 78/1/4 86/1/4
f 78/1/4 82/1/4 86/1/4
f 84/1/4 85/1/4 86/1/4
f 82/1/4 84/1/4 86/1/4
f 85/4/4 73/4/4 87/4/4
f 86/1/4 85/1/4 87/1/4
f 87/4/4 73/4/4 88/4/4
f 91/1/5 90/1/5 89/1/5
f 92/1/5 90/1/5 91/1/5
f 93/4/6 94/4/6 95/4/6
f 95/4/6 94/4/6 96/4/6
f 96/4/6 94/4/6 97/4/6
f 97/4/6 94/4/6 98/4/6
f 98/4/6 94/4/6 99/4/6
f 99/4/6 94/4/6 100/4/6
f 100/4/6 94/4/6 101/4/6
f 101/4/6 94/4/6 102/4/6
f 102/4/6 94/4/6 103/4/6
f 95/2/6 96/2/6 104/2/6
f 96/4/6 97/4/6 105/4/6
f 104/2/6 96/2/6 105/2/6
f 105/4/6 97/4/6 106/4/6
f 97/2/6 98/2/6 107/2/6
f 98/3/6 99/3/6 107/3/6
f 99/4/6 100/4/6 108/4/6
f 107/3/6 99/3/6 108/3/6
f 100/2/6 101/2/6 109/2/6
f 108/4/6 100/4/6 109/4/6
f 101/4/6 102/4/6 110/4/6
f 102/2/6 103/2/6 111/2/6
f 110/4/6 102/4/6 111/4/6
f 111/2/6 103/2/6 112/2/6
f 105/2/6 106/2/6 113/2/6
f 104/4/6 105/4/6 113/4/6
f 106/4/6 97/4/6 114/4/6
f 113/2/6 106/2/6 114/2/6
f 97/2/6 107/2/6 115/2/6
f 114/4/6 97/4/6 115/4/6
f 107/2/6 108/2/6 115/2/6
f 108/2/6 109/2/6 115/2/6
f 115/2/6 109/2/6 116/2/6
f 109/2/6 101/2/6 117/2/6
f 116/2/6 109/2/6 117/2/6
f 101/4/6 110/4/6 118/4/6
f 117/2/6 101/2/6 118/2/6
f 110/2/6 111/2/6 119/2/6
f 118/4/6 110/4/6 119/4/6
f 111/4/6 112/4/6 120/4/6
f 119/2/6 111/2/6 120/2/6
f 113/4/6 114/4/6 121/4/6
f 114/2/6 115/2/6 121/2/6
f 115/4/6 116/4/6 122/4/6
f 121/2/6 115/2/6 122/2/6
f 116/2/6 117/2/6 123/2/6
f 122/4/6 116/4/6 123/4/6
f 117/4/6 118/4/6 124/4/6
f 118/2/6 119/2/6 124/2/6
f 119/4/6 120/4/6 125/4/6
f 124/2/6 119/2/6 125/2/6
f 121/4/6 122/4/6 126/4/6
f 122/3/6 123/3/6 126/3/6
f 123/2/6 117/2/6 127/2/6
f 126/3/6 123/3/6 127/3/6
f 126/4/6 127/4/6 128/4/6
f 127/2/6 117/2/6 128/2/6
f 124/4/6 125/4/6 129/4/6
f 128/2/6 117/2/6 129/2/6
f 117/4/6 124/4/6 129/4/6
f 104/4/6 113/4/6 130/4/6
f 121/4/6 126/4/6 130/4/6
f 128/4/6 129/4/6 130/4/6
f 126/4/6 128/4/6 130/4/6
f 113/4/6 121/4/6 130/4/6
f 129/4/6 125/4/6 131/4/6
f 130/4/6 129/4/6 131/4/6
f 120/4/6 112/4/6 131/4/6
f 125/4/6 120/4/6 131/4/6
